<svg width="149" height="36" viewBox="0 0 149 36" fill="none" xmlns="http://www.w3.org/2000/svg">
<path d="M8.9546 0.0909119L15.9944 11.9886H16.2671L23.341 0.0909119H31.6762L21.0228 17.5455L31.9148 35H23.4262L16.2671 23.0852H15.9944L8.83528 35H0.380737L11.3069 17.5455L0.585283 0.0909119H8.9546Z" fill="black"/>
<path d="M43.6762 35.4943C42.0057 35.4943 40.5171 35.2045 39.2103 34.625C37.9035 34.0341 36.8694 33.1648 36.108 32.017C35.358 30.858 34.983 29.4148 34.983 27.6875C34.983 26.233 35.2501 25.0114 35.7841 24.0227C36.3182 23.0341 37.0455 22.2386 37.966 21.6364C38.8864 21.0341 39.9319 20.5795 41.1023 20.2727C42.2841 19.9659 43.5228 19.75 44.8182 19.625C46.341 19.4659 47.5682 19.3182 48.5001 19.1818C49.4319 19.0341 50.108 18.8182 50.5285 18.5341C50.9489 18.25 51.1591 17.8295 51.1591 17.2727V17.1705C51.1591 16.0909 50.8182 15.2557 50.1364 14.6648C49.466 14.0739 48.5114 13.7784 47.2728 13.7784C45.966 13.7784 44.9262 14.0682 44.1535 14.6477C43.3807 15.2159 42.8694 15.9318 42.6194 16.7955L35.9035 16.25C36.2444 14.6591 36.9148 13.2841 37.9148 12.125C38.9148 10.9545 40.2046 10.0568 41.7841 9.43182C43.3751 8.79546 45.216 8.47728 47.3069 8.47728C48.7614 8.47728 50.1535 8.64773 51.483 8.98864C52.8239 9.32955 54.0114 9.85796 55.0455 10.5739C56.091 11.2898 56.9148 12.2102 57.5171 13.3352C58.1194 14.4489 58.4205 15.7841 58.4205 17.3409V35H51.5341V31.3693H51.3296C50.9091 32.1875 50.3466 32.9091 49.6421 33.5341C48.9376 34.1477 48.091 34.6307 47.1023 34.983C46.1137 35.3239 44.9716 35.4943 43.6762 35.4943ZM45.7557 30.483C46.8239 30.483 47.7671 30.2727 48.5853 29.8523C49.4035 29.4205 50.0455 28.8409 50.5114 28.1136C50.9773 27.3864 51.2103 26.5625 51.2103 25.642V22.8636C50.983 23.0114 50.6705 23.1477 50.2728 23.2727C49.8864 23.3864 49.4489 23.4943 48.9603 23.5966C48.4716 23.6875 47.983 23.7727 47.4944 23.8523C47.0057 23.9205 46.5626 23.983 46.1648 24.0398C45.3126 24.1648 44.5682 24.3636 43.9319 24.6364C43.2955 24.9091 42.8012 25.2784 42.4489 25.7443C42.0966 26.1989 41.9205 26.767 41.9205 27.4489C41.9205 28.4375 42.2785 29.1932 42.9944 29.7159C43.7216 30.2273 44.6421 30.483 45.7557 30.483Z" fill="black"/>
<path d="M71.3154 19.8636V35H64.054V8.81818H70.9745V13.4375H71.2813C71.8608 11.9148 72.8324 10.7102 74.1961 9.82387C75.5597 8.92614 77.2131 8.47728 79.1563 8.47728C80.9745 8.47728 82.5597 8.875 83.912 9.67046C85.2643 10.4659 86.3154 11.6023 87.0654 13.0795C87.8154 14.5455 88.1904 16.2955 88.1904 18.3295V35H80.929V19.625C80.9404 18.0227 80.5313 16.7727 79.7018 15.875C78.8722 14.9659 77.7302 14.5114 76.2756 14.5114C75.2984 14.5114 74.4347 14.7216 73.6847 15.142C72.9461 15.5625 72.3665 16.1761 71.9461 16.983C71.537 17.7784 71.3268 18.7386 71.3154 19.8636Z" fill="black"/>
<path d="M103.561 35.4261C101.572 35.4261 99.7714 34.9148 98.1577 33.892C96.5555 32.858 95.2827 31.3409 94.3395 29.3409C93.4077 27.3295 92.9418 24.8636 92.9418 21.9432C92.9418 18.9432 93.4248 16.4489 94.3907 14.4602C95.3566 12.4602 96.6407 10.9659 98.243 9.97728C99.8566 8.97728 101.624 8.47728 103.544 8.47728C105.01 8.47728 106.232 8.72728 107.209 9.22728C108.197 9.71591 108.993 10.3295 109.595 11.0682C110.209 11.7955 110.675 12.5114 110.993 13.2159H111.215V0.0909119H118.459V35H111.3V30.8068H110.993C110.652 31.5341 110.169 32.2557 109.544 32.9716C108.93 33.6761 108.129 34.2614 107.141 34.7273C106.163 35.1932 104.97 35.4261 103.561 35.4261ZM105.862 29.6477C107.033 29.6477 108.021 29.3295 108.828 28.6932C109.646 28.0455 110.271 27.142 110.703 25.983C111.146 24.8239 111.368 23.4659 111.368 21.9091C111.368 20.3523 111.152 19 110.72 17.8523C110.288 16.7045 109.663 15.8182 108.845 15.1932C108.027 14.5682 107.033 14.2557 105.862 14.2557C104.669 14.2557 103.663 14.5795 102.845 15.2273C102.027 15.875 101.408 16.7727 100.987 17.9205C100.567 19.0682 100.357 20.3977 100.357 21.9091C100.357 23.4318 100.567 24.7784 100.987 25.9489C101.419 27.108 102.038 28.017 102.845 28.6761C103.663 29.3239 104.669 29.6477 105.862 29.6477Z" fill="black"/>
<path d="M136.361 35.5114C133.668 35.5114 131.349 34.9659 129.406 33.875C127.474 32.7727 125.986 31.2159 124.94 29.2045C123.895 27.1818 123.372 24.7898 123.372 22.0284C123.372 19.3352 123.895 16.9716 124.94 14.9375C125.986 12.9034 127.457 11.3182 129.355 10.1818C131.264 9.04546 133.503 8.47728 136.071 8.47728C137.798 8.47728 139.406 8.75569 140.895 9.3125C142.395 9.85796 143.702 10.6818 144.815 11.7841C145.94 12.8864 146.815 14.2727 147.44 15.9432C148.065 17.6023 148.378 19.5455 148.378 21.7727V23.767H126.27V19.267H141.543C141.543 18.2216 141.315 17.2955 140.861 16.4886C140.406 15.6818 139.776 15.0511 138.969 14.5966C138.173 14.1307 137.247 13.8977 136.19 13.8977C135.088 13.8977 134.111 14.1534 133.259 14.6648C132.418 15.1648 131.759 15.8409 131.281 16.6932C130.804 17.5341 130.56 18.4716 130.548 19.5057V23.7841C130.548 25.0795 130.787 26.1989 131.264 27.142C131.753 28.0852 132.44 28.8125 133.327 29.3239C134.213 29.8352 135.264 30.0909 136.48 30.0909C137.287 30.0909 138.026 29.9773 138.696 29.75C139.367 29.5227 139.94 29.1818 140.418 28.7273C140.895 28.2727 141.259 27.7159 141.509 27.0568L148.224 27.5C147.884 29.1136 147.185 30.5227 146.128 31.7273C145.082 32.9205 143.73 33.8523 142.071 34.5227C140.423 35.1818 138.52 35.5114 136.361 35.5114Z" fill="black"/>
</svg>
